<svg width="1440" height="432" viewBox="0 0 1440 432" fill="none" xmlns="http://www.w3.org/2000/svg">
<g clip-path="url(#clip0_3341_7514)">
<path d="M1138.59 269.209L975.6 329.186V87.1631L1138.59 27.1865V269.209Z" fill="#5F0229" stroke="#E31837" stroke-width="0.2"/>
<path d="M485.838 508.551L322.85 568.527V326.505L485.838 266.528V508.551Z" fill="#5F0229" stroke="#E31837" stroke-width="0.2"/>
<path d="M485.838 163.525L322.85 223.502V-18.5205L485.838 -78.4971V163.525Z" fill="#5F0229" stroke="#E31837" stroke-width="0.2"/>
<path d="M1138.59 614.233L975.6 674.21V432.188L1138.59 372.211V614.233Z" fill="#5F0229" stroke="#E31837" stroke-width="0.2"/>
<path d="M159.463 283.196L-3.52539 343.173V101.15L159.463 41.1738V283.196Z" fill="#5F0229" stroke="#E31837" stroke-width="0.2"/>
<path d="M1464.96 149.538L1301.97 209.515V-32.5078L1464.96 -92.4844V149.538Z" fill="#5F0229" stroke="#E31837" stroke-width="0.2"/>
<path d="M812.213 388.88L649.225 448.856V206.834L812.213 146.857V388.88Z" fill="#5F0229" stroke="#E31837" stroke-width="0.2"/>
<path d="M812.213 43.8545L649.225 103.831V-138.191L812.213 -198.168V43.8545Z" fill="#5F0229" stroke="#E31837" stroke-width="0.2"/>
<path d="M1153.91 264.106L1138.69 269.708V372.069L1153.91 366.467M1153.91 264.106L1168.75 258.647M1153.91 264.106L1153.91 366.467M1168.75 258.647L1183.58 253.188M1168.75 258.647L1168.75 361.007M1183.58 253.188L1198.42 247.729M1183.58 253.188L1183.58 355.548M1198.42 247.729L1213.25 242.27M1198.42 247.729V350.089M1213.25 242.27L1228.09 236.811M1213.25 242.27V344.63M1228.09 236.811L1242.92 231.352M1228.09 236.811V339.171M1242.92 231.352L1257.76 225.893M1242.92 231.352V333.712M1257.76 225.893L1272.59 220.433M1257.76 225.893V328.253M1272.59 220.433L1287.43 214.974M1272.59 220.433V322.794M1287.43 214.974L1301.88 209.658V312.019L1287.43 317.335M1287.43 214.974V317.335M1287.43 317.335L1272.59 322.794M1272.59 322.794L1257.76 328.253M1257.76 328.253L1242.92 333.712M1242.92 333.712L1228.09 339.171M1228.09 339.171L1213.25 344.63M1213.25 344.63L1198.42 350.089M1198.42 350.089L1183.58 355.548M1183.58 355.548L1168.75 361.007M1168.75 361.007L1153.91 366.467" stroke="#E31837" stroke-width="0.2"/>
<path d="M1153.91 -80.552L1138.69 -74.95V27.4104L1153.91 21.8084M1153.91 -80.552L1168.75 -86.0111M1153.91 -80.552L1153.91 21.8084M1168.75 -86.0111L1183.58 -91.4702M1168.75 -86.0111L1168.75 16.3493M1183.58 -91.4702L1198.42 -96.9293M1183.58 -91.4702L1183.58 10.8902M1198.42 -96.9293L1213.25 -102.388M1198.42 -96.9293V5.4311M1213.25 -102.388L1228.09 -107.847M1213.25 -102.388V-0.028002M1228.09 -107.847L1242.92 -113.307M1228.09 -107.847V-5.48709M1242.92 -113.307L1257.76 -118.766M1242.92 -113.307V-10.9462M1257.76 -118.766L1272.59 -124.225M1257.76 -118.766V-16.4053M1272.59 -124.225L1287.43 -129.684M1272.59 -124.225V-21.8644M1287.43 -129.684L1301.88 -135V-32.6396L1287.43 -27.3235M1287.43 -129.684V-27.3235M1287.43 -27.3235L1272.59 -21.8644M1272.59 -21.8644L1257.76 -16.4053M1257.76 -16.4053L1242.92 -10.9462M1242.92 -10.9462L1228.09 -5.48709M1228.09 -5.48709L1213.25 -0.028002M1213.25 -0.028002L1198.42 5.4311M1198.42 5.4311L1183.58 10.8902M1183.58 10.8902L1168.75 16.3493M1168.75 16.3493L1153.91 21.8084" stroke="#E31837" stroke-width="0.2"/>
<path d="M501.161 158.423L485.938 164.025V266.385L501.161 260.783M501.161 158.423L515.996 152.963M501.161 158.423L501.161 260.783M515.996 152.963L530.832 147.504M515.996 152.963L515.996 255.324M530.832 147.504L545.667 142.045M530.832 147.504L530.832 249.865M545.667 142.045L560.502 136.586M545.667 142.045V244.406M560.502 136.586L575.337 131.127M560.502 136.586V238.947M575.337 131.127L590.173 125.668M575.337 131.127V233.488M590.173 125.668L605.008 120.209M590.173 125.668V228.028M605.008 120.209L619.843 114.75M605.008 120.209V222.569M619.843 114.75L634.678 109.291M619.843 114.75V217.11M634.678 109.291L649.125 103.975V206.335L634.678 211.651M634.678 109.291V211.651M634.678 211.651L619.843 217.11M619.843 217.11L605.008 222.569M605.008 222.569L590.173 228.028M590.173 228.028L575.337 233.488M575.337 233.488L560.502 238.947M560.502 238.947L545.667 244.406M545.667 244.406L530.832 249.865M530.832 249.865L515.996 255.324M515.996 255.324L501.161 260.783" stroke="#E31837" stroke-width="0.2"/>
<path d="M159.463 628.222L-3.52539 688.198V446.176L159.463 386.199V628.222Z" fill="#5F0229" stroke="#E31837" stroke-width="0.2"/>
<path d="M1464.96 494.563L1301.97 554.54V312.518L1464.96 252.541V494.563Z" fill="#5F0229" stroke="#E31837" stroke-width="0.2"/>
<path d="M174.786 278.094L159.562 283.697V386.057L174.786 380.455M174.786 278.094L189.621 272.635M174.786 278.094L174.786 380.455M189.621 272.635L204.457 267.176M189.621 272.635L189.621 374.996M204.457 267.176L219.292 261.717M204.457 267.176L204.457 369.537M219.292 261.717L234.127 256.258M219.292 261.717V364.078M234.127 256.258L248.962 250.799M234.127 256.258V358.618M248.962 250.799L263.798 245.34M248.962 250.799V353.159M263.798 245.34L278.633 239.881M263.798 245.34V347.7M278.633 239.881L293.468 234.422M278.633 239.881V342.241M293.468 234.422L308.303 228.963M293.468 234.422V336.782M308.303 228.963L322.75 223.646V326.007L308.303 331.323M308.303 228.963V331.323M308.303 331.323L293.468 336.782M293.468 336.782L278.633 342.241M278.633 342.241L263.798 347.7M263.798 347.7L248.962 353.159M248.962 353.159L234.127 358.618M234.127 358.618L219.292 364.078M219.292 364.078L204.457 369.537M204.457 369.537L189.621 374.996M189.621 374.996L174.786 380.455" stroke="#E31837" stroke-width="0.2"/>
<path d="M174.786 -66.552L159.562 -60.95V41.4104L174.786 35.8084M174.786 -66.552L189.621 -72.0111M174.786 -66.552L174.786 35.8084M189.621 -72.0111L204.457 -77.4702M189.621 -72.0111L189.621 30.3493M204.457 -77.4702L219.292 -82.9293M204.457 -77.4702L204.457 24.8902M219.292 -82.9293L234.127 -88.3884M219.292 -82.9293V19.4311M234.127 -88.3884L248.962 -93.8475M234.127 -88.3884V13.972M248.962 -93.8475L263.798 -99.3066M248.962 -93.8475V8.51291M263.798 -99.3066L278.633 -104.766M263.798 -99.3066V3.05381M278.633 -104.766L293.468 -110.225M278.633 -104.766V-2.40528M293.468 -110.225L308.303 -115.684M293.468 -110.225V-7.86438M308.303 -115.684L322.75 -121V-18.6396L308.303 -13.3235M308.303 -115.684V-13.3235M308.303 -13.3235L293.468 -7.86438M293.468 -7.86438L278.633 -2.40528M278.633 -2.40528L263.798 3.05381M263.798 3.05381L248.962 8.51291M248.962 8.51291L234.127 13.972M234.127 13.972L219.292 19.4311M219.292 19.4311L204.457 24.8902M204.457 24.8902L189.621 30.3493M189.621 30.3493L174.786 35.8084" stroke="#E31837" stroke-width="0.2"/>
<path d="M827.536 383.777L812.312 389.379V491.74L827.536 486.137M827.536 383.777L842.371 378.318M827.536 383.777L827.536 486.137M842.371 378.318L857.207 372.859M842.371 378.318L842.371 480.678M857.207 372.859L872.042 367.4M857.207 372.859L857.207 475.219M872.042 367.4L886.877 361.941M872.042 367.4V469.76M886.877 361.941L901.712 356.482M886.877 361.941V464.301M901.712 356.482L916.548 351.023M901.712 356.482V458.842M916.548 351.023L931.383 345.563M916.548 351.023V453.383M931.383 345.563L946.218 340.104M931.383 345.563V447.924M946.218 340.104L961.053 334.645M946.218 340.104V442.465M961.053 334.645L975.5 329.329V431.689L961.053 437.006M961.053 334.645V437.006M961.053 437.006L946.218 442.465M946.218 442.465L931.383 447.924M931.383 447.924L916.548 453.383M916.548 453.383L901.712 458.842M901.712 458.842L886.877 464.301M886.877 464.301L872.042 469.76M872.042 469.76L857.207 475.219M857.207 475.219L842.371 480.678M842.371 480.678L827.536 486.137" stroke="#E31837" stroke-width="0.2"/>
<path d="M827.536 38.7527L812.312 44.3547V146.715L827.536 141.113M827.536 38.7527L842.371 33.2936M827.536 38.7527L827.536 141.113M842.371 33.2936L857.207 27.8345M842.371 33.2936L842.371 135.654M857.207 27.8345L872.042 22.3754M857.207 27.8345L857.207 130.195M872.042 22.3754L886.877 16.9163M872.042 22.3754V124.736M886.877 16.9163L901.712 11.4572M886.877 16.9163V119.277M901.712 11.4572L916.548 5.9981M901.712 11.4572V113.818M916.548 5.9981L931.383 0.539012M916.548 5.9981V108.358M931.383 0.539012L946.218 -4.92008M931.383 0.539012V102.899M946.218 -4.92008L961.053 -10.3792M946.218 -4.92008V97.4403M961.053 -10.3792L975.5 -15.6953V86.6651L961.053 91.9812M961.053 -10.3792V91.9812M961.053 91.9812L946.218 97.4403M946.218 97.4403L931.383 102.899M931.383 102.899L916.548 108.358M916.548 108.358L901.712 113.818M901.712 113.818L886.877 119.277M886.877 119.277L872.042 124.736M872.042 124.736L857.207 130.195M857.207 130.195L842.371 135.654M842.371 135.654L827.536 141.113" stroke="#E31837" stroke-width="0.2"/>
<rect x="990.1" y="-94.9" width="133.8" height="586.8" stroke="#E31837" stroke-width="0.2"/>
<line x1="990.5" y1="-108" x2="990.5" y2="505" stroke="#5F0229"/>
<line x1="1005.39" y1="-108" x2="1005.39" y2="505" stroke="#5F0229"/>
<line x1="1020.28" y1="-108" x2="1020.28" y2="505" stroke="#5F0229"/>
<line x1="1035.17" y1="-108" x2="1035.17" y2="505" stroke="#5F0229"/>
<line x1="1050.06" y1="-108" x2="1050.06" y2="505" stroke="#5F0229"/>
<line x1="1064.94" y1="-108" x2="1064.94" y2="505" stroke="#5F0229"/>
<line x1="1079.83" y1="-108" x2="1079.83" y2="505" stroke="#5F0229"/>
<line x1="1094.72" y1="-108" x2="1094.72" y2="505" stroke="#5F0229"/>
<line x1="1109.61" y1="-108" x2="1109.61" y2="505" stroke="#5F0229"/>
<line x1="1124.5" y1="-108" x2="1124.5" y2="505" stroke="#5F0229"/>
<rect x="1314.1" y="-94.9" width="133.8" height="586.8" stroke="#E31837" stroke-width="0.2"/>
<line x1="1314.5" y1="-108" x2="1314.5" y2="505" stroke="#5F0229"/>
<line x1="1329.39" y1="-108" x2="1329.39" y2="505" stroke="#5F0229"/>
<line x1="1344.28" y1="-108" x2="1344.28" y2="505" stroke="#5F0229"/>
<line x1="1359.17" y1="-108" x2="1359.17" y2="505" stroke="#5F0229"/>
<line x1="1374.06" y1="-108" x2="1374.06" y2="505" stroke="#5F0229"/>
<line x1="1388.94" y1="-108" x2="1388.94" y2="505" stroke="#5F0229"/>
<line x1="1403.83" y1="-108" x2="1403.83" y2="505" stroke="#5F0229"/>
<line x1="1418.72" y1="-108" x2="1418.72" y2="505" stroke="#5F0229"/>
<line x1="1433.61" y1="-108" x2="1433.61" y2="505" stroke="#5F0229"/>
<rect x="664.1" y="-94.9" width="133.8" height="586.8" stroke="#E31837" stroke-width="0.2"/>
<line x1="664.5" y1="-108" x2="664.5" y2="505" stroke="#5F0229"/>
<line x1="679.389" y1="-108" x2="679.389" y2="505" stroke="#5F0229"/>
<line x1="694.278" y1="-108" x2="694.278" y2="505" stroke="#5F0229"/>
<line x1="709.167" y1="-108" x2="709.167" y2="505" stroke="#5F0229"/>
<line x1="724.056" y1="-108" x2="724.056" y2="505" stroke="#5F0229"/>
<line x1="738.944" y1="-108" x2="738.944" y2="505" stroke="#5F0229"/>
<line x1="753.833" y1="-108" x2="753.833" y2="505" stroke="#5F0229"/>
<line x1="768.722" y1="-108" x2="768.722" y2="505" stroke="#5F0229"/>
<line x1="783.611" y1="-108" x2="783.611" y2="505" stroke="#5F0229"/>
<line x1="798.5" y1="-108" x2="798.5" y2="505" stroke="#5F0229"/>
<rect x="337.1" y="-94.9" width="133.8" height="586.8" stroke="#E31837" stroke-width="0.2"/>
<line x1="337.5" y1="-108" x2="337.5" y2="505" stroke="#5F0229"/>
<line x1="352.389" y1="-108" x2="352.389" y2="505" stroke="#5F0229"/>
<line x1="367.278" y1="-108" x2="367.278" y2="505" stroke="#5F0229"/>
<line x1="382.167" y1="-108" x2="382.167" y2="505" stroke="#5F0229"/>
<line x1="397.056" y1="-108" x2="397.056" y2="505" stroke="#5F0229"/>
<line x1="411.944" y1="-108" x2="411.944" y2="505" stroke="#5F0229"/>
<line x1="426.833" y1="-108" x2="426.833" y2="505" stroke="#5F0229"/>
<line x1="441.722" y1="-108" x2="441.722" y2="505" stroke="#5F0229"/>
<line x1="456.611" y1="-108" x2="456.611" y2="505" stroke="#5F0229"/>
<line x1="471.5" y1="-108" x2="471.5" y2="505" stroke="#5F0229"/>
<rect x="10.1" y="-94.9" width="133.8" height="586.8" stroke="#E31837" stroke-width="0.2"/>
<line x1="10.5" y1="-108" x2="10.5" y2="505" stroke="#5F0229"/>
<line x1="25.3889" y1="-108" x2="25.3889" y2="505" stroke="#5F0229"/>
<line x1="40.2778" y1="-108" x2="40.2778" y2="505" stroke="#5F0229"/>
<line x1="55.1666" y1="-108" x2="55.1666" y2="505" stroke="#5F0229"/>
<line x1="70.0555" y1="-108" x2="70.0555" y2="505" stroke="#5F0229"/>
<line x1="84.9445" y1="-108" x2="84.9445" y2="505" stroke="#5F0229"/>
<line x1="99.8334" y1="-108" x2="99.8334" y2="505" stroke="#5F0229"/>
<line x1="114.722" y1="-108" x2="114.722" y2="505" stroke="#5F0229"/>
<line x1="129.611" y1="-108" x2="129.611" y2="505" stroke="#5F0229"/>
<line x1="144.5" y1="-108" x2="144.5" y2="505" stroke="#5F0229"/>
</g>
<defs>
<clipPath id="clip0_3341_7514">
<rect width="1440" height="432" fill="white"/>
</clipPath>
</defs>
</svg>
